<?xml version="1.0" encoding="UTF-8" standalone="no"?>
<!-- Created with Inkscape (http://www.inkscape.org/) -->

<svg
   width="200mm"
   height="200mm"
   viewBox="0 0 200 200"
   version="1.1"
   id="svg1"
   inkscape:version="1.3.2 (091e20e, 2023-11-25, custom)"
   sodipodi:docname="a_a_logo.svg"
   xml:space="preserve"
   xmlns:inkscape="http://www.inkscape.org/namespaces/inkscape"
   xmlns:sodipodi="http://sodipodi.sourceforge.net/DTD/sodipodi-0.dtd"
   xmlns="http://www.w3.org/2000/svg"
   xmlns:svg="http://www.w3.org/2000/svg"><sodipodi:namedview
     id="namedview1"
     pagecolor="#ffffff"
     bordercolor="#000000"
     borderopacity="0.25"
     inkscape:showpageshadow="2"
     inkscape:pageopacity="0.0"
     inkscape:pagecheckerboard="0"
     inkscape:deskcolor="#d1d1d1"
     inkscape:document-units="mm"
     inkscape:zoom="0.36213173"
     inkscape:cx="-156.02057"
     inkscape:cy="-252.67048"
     inkscape:window-width="1920"
     inkscape:window-height="1009"
     inkscape:window-x="-8"
     inkscape:window-y="-8"
     inkscape:window-maximized="1"
     inkscape:current-layer="layer1" /><defs
     id="defs1" /><g
     inkscape:label="Layer 1"
     inkscape:groupmode="layer"
     id="layer1"
     transform="translate(-1.8265683)"><path
       id="rect1"
       style="fill:#20bef6;fill-opacity:1;stroke-width:0.221431"
       d="m 44.838101,90.52887 0.02274,4.39508 0.0057,10e-7 0.355016,35.778689 10.228834,-0.0496 -0.355534,-35.821073 h -0.01757 z" /><path
       id="rect1-8"
       style="fill:#20bef6;fill-opacity:1;stroke-width:0.217159"
       d="M 162.16769 90.735547 L 151.91146 95.335783 L 151.91767 95.335783 L 152.20447 123.11858 L 106.32045 144.76481 L 70.288539 128.41128 L 70.367088 140.47721 L 102.50156 155.35641 L 102.44368 155.31093 L 106.41347 157.41313 L 106.41347 157.41985 L 158.68521 131.36924 L 158.67694 131.35374 L 162.49428 129.74195 L 162.44777 129.69958 L 162.50152 129.69958 L 162.14598 95.246899 L 162.12841 95.246899 L 162.16769 90.735547 z " /><rect
       style="fill:#20bef6;fill-opacity:1;stroke-width:0.241371"
       id="rect2"
       width="23.106089"
       height="40.732475"
       x="38.6964"
       y="129.93706" /><path
       id="rect3"
       style="fill:#20bef6;stroke-width:0.264583"
       d="m 99.843773,35.090002 -72.563514,29.11164 -0.02326,9.315194 0.187585,-0.0739 -0.04134,0.08837 72.434979,32.240574 -0.0411,-11.562804 L 39.454188,68.711962 99.922183,46.106167 Z"
       sodipodi:nodetypes="cccccccccc" /><path
       id="rect3-5"
       style="fill:#20bef6;stroke-width:0.264583"
       d="m 112.22753,105.74554 72.99727,-33.635542 -0.41081,-9.306159 -0.18394,0.08256 0.0371,-0.09022 -72.53878,-27.977743 0.091,10.99244 60.63453,22.360925 -60.70102,26.227568 z"
       sodipodi:nodetypes="cccccccccc" /></g></svg>
