<?xml version="1.0" encoding="UTF-8" standalone="no"?>
<!-- Created with Inkscape (http://www.inkscape.org/) -->

<svg
   width="79.740356mm"
   height="57.382618mm"
   viewBox="0 0 79.740356 57.382618"
   version="1.1"
   id="svg1"
   xml:space="preserve"
   inkscape:version="1.3.2 (091e20e, 2023-11-25, custom)"
   sodipodi:docname="laptop_phone.svg"
   xmlns:inkscape="http://www.inkscape.org/namespaces/inkscape"
   xmlns:sodipodi="http://sodipodi.sourceforge.net/DTD/sodipodi-0.dtd"
   xmlns="http://www.w3.org/2000/svg"
   xmlns:svg="http://www.w3.org/2000/svg"><sodipodi:namedview
     id="namedview1"
     pagecolor="#ffffff"
     bordercolor="#000000"
     borderopacity="0.25"
     inkscape:showpageshadow="2"
     inkscape:pageopacity="0.0"
     inkscape:pagecheckerboard="0"
     inkscape:deskcolor="#d1d1d1"
     inkscape:document-units="mm"
     inkscape:zoom="1.5742345"
     inkscape:cx="424.65084"
     inkscape:cy="545.97965"
     inkscape:window-width="1920"
     inkscape:window-height="991"
     inkscape:window-x="-9"
     inkscape:window-y="-9"
     inkscape:window-maximized="1"
     inkscape:current-layer="layer1" /><defs
     id="defs1" /><g
     inkscape:label="Layer 1"
     inkscape:groupmode="layer"
     id="layer1"
     inkscape:export-filename="laptop_phone23.svg"
     inkscape:export-xdpi="96"
     inkscape:export-ydpi="96"
     transform="translate(-66.574228,-115.20834)"><rect
       style="fill:#11111d;fill-opacity:1;stroke:#bcbcbc;stroke-width:0.3;stroke-dasharray:none;stroke-opacity:1"
       id="rect1"
       width="64.293747"
       height="46.831242"
       x="76.464584"
       y="115.35834"
       ry="3.96875" /><rect
       style="fill:#b3b3b3;stroke:none;stroke-width:0.826066;stroke-dasharray:none;stroke-opacity:1"
       id="rect8"
       width="76.199997"
       height="2.8887641"
       x="70.114586"
       y="160.21603"
       ry="1.4443821" /><g
       inkscape:label="Layer 1"
       id="layer1-0"
       transform="matrix(0.11478693,0,0,0.11171086,96.967118,126.42473)"><path
         id="rect1-4"
         style="fill:#20bef6;fill-opacity:1;stroke-width:0.221431"
         d="m 44.838101,90.52887 0.02274,4.39508 0.0057,10e-7 0.355016,35.778689 10.228834,-0.0496 -0.355534,-35.821073 h -0.01757 z" /><path
         id="rect1-8"
         style="fill:#20bef6;fill-opacity:1;stroke-width:0.217159"
         d="m 162.16769,90.735547 -10.25623,4.600236 h 0.006 l 0.2868,27.782797 -45.88402,21.64623 -36.031911,-16.35353 0.07855,12.06593 32.134471,14.8792 -0.0579,-0.0455 3.96979,2.1022 v 0.007 l 52.27174,-26.05061 -0.008,-0.0155 3.81734,-1.61179 -0.0465,-0.0424 h 0.0538 l -0.35554,-34.452681 h -0.0176 z" /><rect
         style="fill:#20bef6;fill-opacity:1;stroke-width:0.241371"
         id="rect2"
         width="23.106089"
         height="40.732475"
         x="38.6964"
         y="129.93706" /><path
         id="rect3"
         style="fill:#20bef6;stroke-width:0.264583"
         d="m 99.843773,35.090002 -72.563514,29.11164 -0.02326,9.315194 0.187585,-0.0739 -0.04134,0.08837 72.434979,32.240574 -0.0411,-11.562804 L 39.454188,68.711962 99.922183,46.106167 Z"
         sodipodi:nodetypes="cccccccccc" /><path
         id="rect3-5"
         style="fill:#20bef6;stroke-width:0.264583"
         d="m 112.22753,105.74554 72.99727,-33.635542 -0.41081,-9.306159 -0.18394,0.08256 0.0371,-0.09022 -72.53878,-27.977743 0.091,10.99244 60.63453,22.360925 -60.70102,26.227568 z"
         sodipodi:nodetypes="cccccccccc" /></g><rect
       style="fill:#11111d;fill-opacity:1;stroke:#bcbcbc;stroke-width:0.3;stroke-dasharray:none;stroke-opacity:1"
       id="rect9"
       width="22.185385"
       height="32.101582"
       x="66.724228"
       y="140.33937"
       ry="1.5158074" /><g
       inkscape:label="Layer 1"
       id="layer1-0-2"
       transform="matrix(0.06052507,0,0,0.05851248,71.789184,150.39133)"><path
         id="rect1-4-2"
         style="fill:#20bef6;fill-opacity:1;stroke-width:0.221431"
         d="m 44.838101,90.52887 0.02274,4.39508 0.0057,10e-7 0.355016,35.778689 10.228834,-0.0496 -0.355534,-35.821073 h -0.01757 z" /><path
         id="rect1-8-0"
         style="fill:#20bef6;fill-opacity:1;stroke-width:0.217159"
         d="m 162.16769,90.735547 -10.25623,4.600236 h 0.006 l 0.2868,27.782797 -45.88402,21.64623 -36.031911,-16.35353 0.07855,12.06593 32.134471,14.8792 -0.0579,-0.0455 3.96979,2.1022 v 0.007 l 52.27174,-26.05061 -0.008,-0.0155 3.81734,-1.61179 -0.0465,-0.0424 h 0.0538 l -0.35554,-34.452681 h -0.0176 z" /><rect
         style="fill:#20bef6;fill-opacity:1;stroke-width:0.241371"
         id="rect2-7"
         width="23.106089"
         height="40.732475"
         x="38.6964"
         y="129.93706" /><path
         id="rect3-7"
         style="fill:#20bef6;stroke-width:0.264583"
         d="m 99.843773,35.090002 -72.563514,29.11164 -0.02326,9.315194 0.187585,-0.0739 -0.04134,0.08837 72.434979,32.240574 -0.0411,-11.562804 L 39.454188,68.711962 99.922183,46.106167 Z"
         sodipodi:nodetypes="cccccccccc" /><path
         id="rect3-5-5"
         style="fill:#20bef6;stroke-width:0.264583"
         d="m 112.22753,105.74554 72.99727,-33.635542 -0.41081,-9.306159 -0.18394,0.08256 0.0371,-0.09022 -72.53878,-27.977743 0.091,10.99244 60.63453,22.360925 -60.70102,26.227568 z"
         sodipodi:nodetypes="cccccccccc" /></g></g></svg>
