<?xml version="1.0" encoding="UTF-8" standalone="no"?>
<!-- Created with Inkscape (http://www.inkscape.org/) -->

<svg
   width="22.485384mm"
   height="32.401585mm"
   viewBox="0 0 22.485384 32.401585"
   version="1.1"
   id="svg1"
   xml:space="preserve"
   inkscape:version="1.3.2 (091e20e, 2023-11-25, custom)"
   sodipodi:docname="laptop_phone.svg"
   xmlns:inkscape="http://www.inkscape.org/namespaces/inkscape"
   xmlns:sodipodi="http://sodipodi.sourceforge.net/DTD/sodipodi-0.dtd"
   xmlns="http://www.w3.org/2000/svg"
   xmlns:svg="http://www.w3.org/2000/svg"><sodipodi:namedview
     id="namedview1"
     pagecolor="#ffffff"
     bordercolor="#000000"
     borderopacity="0.25"
     inkscape:showpageshadow="2"
     inkscape:pageopacity="0.0"
     inkscape:pagecheckerboard="0"
     inkscape:deskcolor="#d1d1d1"
     inkscape:document-units="mm"
     inkscape:zoom="1.5742345"
     inkscape:cx="424.96846"
     inkscape:cy="443.07249"
     inkscape:window-width="1920"
     inkscape:window-height="991"
     inkscape:window-x="-9"
     inkscape:window-y="-9"
     inkscape:window-maximized="1"
     inkscape:current-layer="layer2" /><defs
     id="defs1"><rect
       x="412.26385"
       y="280.13617"
       width="34.302387"
       height="42.560368"
       id="rect15" /><rect
       x="412.26385"
       y="280.13617"
       width="34.302387"
       height="42.560368"
       id="rect15-8" /><rect
       x="412.26385"
       y="280.13617"
       width="34.302387"
       height="42.560368"
       id="rect15-9" /><rect
       x="412.26385"
       y="280.13617"
       width="34.302387"
       height="42.560368"
       id="rect15-5" /><rect
       x="412.26385"
       y="280.13617"
       width="34.302387"
       height="42.560368"
       id="rect15-5-8" /><rect
       x="412.26385"
       y="280.13617"
       width="34.302387"
       height="42.560368"
       id="rect15-5-6" /></defs><g
     inkscape:label="laptop_phone"
     inkscape:groupmode="layer"
     id="layer1"
     inkscape:export-filename="laptop_phone23.svg"
     inkscape:export-xdpi="96"
     inkscape:export-ydpi="96"
     transform="translate(-99.516161,-66.238081)"><g
       id="g11"
       inkscape:label="laptop"><rect
         style="fill:#11111d;fill-opacity:1;stroke:#bcbcbc;stroke-width:0.3;stroke-dasharray:none;stroke-opacity:1"
         id="rect1"
         width="64.293747"
         height="46.831242"
         x="76.464584"
         y="115.35834"
         ry="3.96875" /><rect
         style="fill:#b3b3b3;stroke:none;stroke-width:0.826066;stroke-dasharray:none;stroke-opacity:1"
         id="rect8"
         width="76.199997"
         height="2.8887641"
         x="70.114586"
         y="160.21603"
         ry="1.4443821" /><g
         inkscape:label="Layer 1"
         id="layer1-0"
         transform="matrix(0.11478693,0,0,0.11171086,96.967118,126.42473)"><path
           id="rect1-4"
           style="fill:#20bef6;fill-opacity:1;stroke-width:0.221431"
           d="m 44.838101,90.52887 0.02274,4.39508 0.0057,10e-7 0.355016,35.778689 10.228834,-0.0496 -0.355534,-35.821073 h -0.01757 z" /><path
           id="rect1-8"
           style="fill:#20bef6;fill-opacity:1;stroke-width:0.217159"
           d="m 162.16769,90.735547 -10.25623,4.600236 h 0.006 l 0.2868,27.782797 -45.88402,21.64623 -36.031911,-16.35353 0.07855,12.06593 32.134471,14.8792 -0.0579,-0.0455 3.96979,2.1022 v 0.007 l 52.27174,-26.05061 -0.008,-0.0155 3.81734,-1.61179 -0.0465,-0.0424 h 0.0538 l -0.35554,-34.452681 h -0.0176 z" /><rect
           style="fill:#20bef6;fill-opacity:1;stroke-width:0.241371"
           id="rect2"
           width="23.106089"
           height="40.732475"
           x="38.6964"
           y="129.93706" /><path
           id="rect3"
           style="fill:#20bef6;stroke-width:0.264583"
           d="m 99.843773,35.090002 -72.563514,29.11164 -0.02326,9.315194 0.187585,-0.0739 -0.04134,0.08837 72.434979,32.240574 -0.0411,-11.562804 L 39.454188,68.711962 99.922183,46.106167 Z"
           sodipodi:nodetypes="cccccccccc" /><path
           id="rect3-5"
           style="fill:#20bef6;stroke-width:0.264583"
           d="m 112.22753,105.74554 72.99727,-33.635542 -0.41081,-9.306159 -0.18394,0.08256 0.0371,-0.09022 -72.53878,-27.977743 0.091,10.99244 60.63453,22.360925 -60.70102,26.227568 z"
           sodipodi:nodetypes="cccccccccc" /></g></g><g
       id="g10"
       inkscape:label="phone"><rect
         style="fill:#11111d;fill-opacity:1;stroke:#bcbcbc;stroke-width:0.3;stroke-dasharray:none;stroke-opacity:1"
         id="rect9"
         width="22.185385"
         height="32.101582"
         x="66.724228"
         y="140.33937"
         ry="1.5158074" /><g
         inkscape:label="Layer 1"
         id="layer1-0-2"
         transform="matrix(0.06052507,0,0,0.05851248,71.789184,150.39133)"><path
           id="rect1-4-2"
           style="fill:#20bef6;fill-opacity:1;stroke-width:0.221431"
           d="m 44.838101,90.52887 0.02274,4.39508 0.0057,10e-7 0.355016,35.778689 10.228834,-0.0496 -0.355534,-35.821073 h -0.01757 z" /><path
           id="rect1-8-0"
           style="fill:#20bef6;fill-opacity:1;stroke-width:0.217159"
           d="m 162.16769,90.735547 -10.25623,4.600236 h 0.006 l 0.2868,27.782797 -45.88402,21.64623 -36.031911,-16.35353 0.07855,12.06593 32.134471,14.8792 -0.0579,-0.0455 3.96979,2.1022 v 0.007 l 52.27174,-26.05061 -0.008,-0.0155 3.81734,-1.61179 -0.0465,-0.0424 h 0.0538 l -0.35554,-34.452681 h -0.0176 z" /><rect
           style="fill:#20bef6;fill-opacity:1;stroke-width:0.241371"
           id="rect2-7"
           width="23.106089"
           height="40.732475"
           x="38.6964"
           y="129.93706" /><path
           id="rect3-7"
           style="fill:#20bef6;stroke-width:0.264583"
           d="m 99.843773,35.090002 -72.563514,29.11164 -0.02326,9.315194 0.187585,-0.0739 -0.04134,0.08837 72.434979,32.240574 -0.0411,-11.562804 L 39.454188,68.711962 99.922183,46.106167 Z"
           sodipodi:nodetypes="cccccccccc" /><path
           id="rect3-5-5"
           style="fill:#20bef6;stroke-width:0.264583"
           d="m 112.22753,105.74554 72.99727,-33.635542 -0.41081,-9.306159 -0.18394,0.08256 0.0371,-0.09022 -72.53878,-27.977743 0.091,10.99244 60.63453,22.360925 -60.70102,26.227568 z"
           sodipodi:nodetypes="cccccccccc" /></g></g></g><g
     inkscape:groupmode="layer"
     id="layer2"
     inkscape:label="phone_math"
     inkscape:export-filename="math_phone.svg"
     inkscape:export-xdpi="96"
     inkscape:export-ydpi="96"
     transform="translate(-99.516161,-66.238081)"><g
       id="g15"
       inkscape:label="phone"
       transform="translate(32.941938,-73.951286)"><rect
         style="fill:#11111d;fill-opacity:1;stroke:#bcbcbc;stroke-width:0.3;stroke-dasharray:none;stroke-opacity:1"
         id="rect11"
         width="22.185385"
         height="32.101582"
         x="66.724228"
         y="140.33937"
         ry="1.5158074" /></g><text
       xml:space="preserve"
       transform="matrix(0.36077508,0,0,0.30548387,-44.757462,-12.260423)"
       id="text15"
       style="font-weight:bold;font-size:29.3333px;font-family:Arial;-inkscape-font-specification:'Arial Bold';white-space:pre;shape-inside:url(#rect15);fill:#ffffff;fill-opacity:1;stroke:none;stroke-width:1.13386;stroke-dasharray:none;stroke-opacity:1"
       inkscape:label="+" /><text
       xml:space="preserve"
       transform="matrix(0.36077508,0,0,0.30548387,-43.703295,-3.5058344)"
       id="text15-0"
       style="font-weight:bold;font-size:21.2529px;font-family:Arial;-inkscape-font-specification:'Arial Bold';white-space:pre;shape-inside:url(#rect15-5);fill:#ffffff;fill-opacity:1;stroke:none;stroke-width:1.13386;stroke-dasharray:none;stroke-opacity:1"
       inkscape:label="x"><tspan
         x="412.26367"
         y="299.28036"
         id="tspan3">x</tspan></text><text
       xml:space="preserve"
       transform="matrix(0.36077508,0,0,0.30548387,-43.677671,-10.862906)"
       id="text15-0-8"
       style="font-weight:bold;font-size:21.2529px;font-family:Arial;-inkscape-font-specification:'Arial Bold';white-space:pre;shape-inside:url(#rect15-5-6);fill:#ffffff;fill-opacity:1;stroke:none;stroke-width:1.13386;stroke-dasharray:none;stroke-opacity:1"
       inkscape:label="+"><tspan
         x="412.26367"
         y="299.28036"
         id="tspan4">+</tspan></text><text
       xml:space="preserve"
       transform="matrix(0.36077508,0,0,0.30548387,-36.595341,-2.961803)"
       id="text15-0-6"
       style="font-weight:bold;font-size:21.2529px;font-family:Arial;-inkscape-font-specification:'Arial Bold';white-space:pre;shape-inside:url(#rect15-5-8);fill:#ffffff;fill-opacity:1;stroke:none;stroke-width:1.13386;stroke-dasharray:none;stroke-opacity:1"
       inkscape:label="="><tspan
         x="412.26367"
         y="299.28036"
         id="tspan5">=</tspan></text><text
       xml:space="preserve"
       transform="matrix(0.36077508,0,0,0.30548387,-44.684924,-4.3127919)"
       id="text15-3"
       style="font-weight:bold;font-size:29.3333px;font-family:Arial;-inkscape-font-specification:'Arial Bold';white-space:pre;shape-inside:url(#rect15-9);fill:#ffffff;fill-opacity:1;stroke:none;stroke-width:1.13386;stroke-dasharray:none;stroke-opacity:1"
       inkscape:label="+" /><text
       xml:space="preserve"
       transform="matrix(0.36077508,0,0,0.30548387,-36.352927,-13.027536)"
       id="text15-7"
       style="font-weight:bold;font-size:29.3333px;font-family:Arial;-inkscape-font-specification:'Arial Bold';white-space:pre;shape-inside:url(#rect15-8);fill:#ffffff;fill-opacity:1;stroke:none;stroke-width:1.13386;stroke-dasharray:none;stroke-opacity:1"
       inkscape:label="-"><tspan
         x="412.26367"
         y="306.55882"
         id="tspan6">-</tspan></text></g></svg>
